# xmcd
#
# Track frame offsets:
#	150
#	16580
#	30762
#	47205
#	61632
#	71700
#	89540
#	100575
#	111600
#	123130
#	140985
#	155020
#	173005
#	190587
#	206155
#	219397
#	233182
#	245325
#	260587
#
# Disc length: 3636 seconds
#
# Revision: 1
# Processed by: cddbd v1.5.1PL0 Copyright (c) Steve Scherf et al.
# Submitted via: CDex 1.50Beta5
#
DISCID=060e3213
DTITLE=Mino Kabasawa - Piano Pure -ああ MINO meets JAPANESE FOLK and NEW MUSIC
DYEAR=1998
DGENRE=Classical
TTITLE0=Kono hiroi nohara ippai - Kyono hiha sayounara (Moriyama Ryoko)
TTITLE1="Ichigohakusyo" wo mouichido (BANBAN)
TTITLE2=Anata (Kosaka Akiko)
TTITLE3=Eki (Takeuchi Mariya)
TTITLE4=Daremo inai umi (towa e moa)
TTITLE5=Kandagawa (Kaguyahime)
TTITLE6=Kekkonsiyouyo (Yoshida Takurou)
TTITLE7=Francine no baai (Shintani Noriko)
TTITLE8=Kisetuno nakade (Matuyama Chiharu)
TTITLE9=Nagoriyuki (Iruka)
TTITLE10=Olivia wo kikinagara (Anri)
TTITLE11=Iihi tabidachi (Yamaguchi Momoe)
TTITLE12=Cosmos (Yamaguchi Momoe)
TTITLE13=Jidai (Nakajima Miyuki)
TTITLE14=Sayonara (OFF COURSE)
TTITLE15=Syourounagasi (Grape)
TTITLE16=Tubasawo kudasai (Akaitori)
TTITLE17=Okurukotoba (Kaientai)
TTITLE18=Misakimeguri (Yamamoto Kotaro to Weekend)
EXTD=record on 4-6 February 1998 at Act City Hamamatsu, Shizuoka
EXTT0=
EXTT1=
EXTT2=
EXTT3=
EXTT4=
EXTT5=
EXTT6=
EXTT7=
EXTT8=
EXTT9=
EXTT10=
EXTT11=
EXTT12=
EXTT13=
EXTT14=
EXTT15=
EXTT16=
EXTT17=
EXTT18=
PLAYORDER=
